<?xml version="1.0" standalone="no"?>
<!DOCTYPE svg PUBLIC "-//W3C//DTD SVG 20010904//EN"
 "http://www.w3.org/TR/2001/REC-SVG-20010904/DTD/svg10.dtd">
<svg version="1.0" xmlns="http://www.w3.org/2000/svg"
 width="500.000000pt" height="153.000000pt" viewBox="0 0 500.000000 153.000000"
 preserveAspectRatio="xMidYMid meet">

<g transform="translate(0.000000,153.000000) scale(0.100000,-0.100000)" fill="currentColor" stroke="none">
<path d="M3083 1500 c-18 -10 -183 -169 -368 -352 -333 -330 -336 -333 -335
-374 0 -26 8 -52 23 -72 19 -26 597 -564 694 -645 45 -38 98 -45 141 -18 55
35 68 105 30 160 -13 17 -153 151 -313 297 -159 146 -291 269 -293 273 -1 5
125 133 282 286 156 152 290 290 296 306 23 56 -4 115 -67 148 -31 16 -53 14
-90 -9z"/>
<path d="M4783 1501 c-17 -11 -182 -170 -367 -353 -332 -329 -337 -334 -336
-373 0 -22 6 -50 13 -62 7 -11 174 -170 372 -352 381 -351 391 -358 456 -331
44 19 69 56 69 105 0 54 0 54 -345 370 -154 141 -281 260 -283 265 -1 4 125
132 282 284 156 153 290 290 296 306 39 95 -71 194 -157 141z"/>
<path d="M125 1500 c-11 -4 -31 -20 -45 -35 -29 -31 -35 -100 -10 -130 8 -10
128 -122 265 -248 138 -127 274 -252 303 -279 l52 -50 -295 -291 c-291 -287
-296 -293 -295 -332 1 -86 76 -144 147 -113 43 18 697 658 713 698 30 71 25
77 -360 433 -195 180 -369 334 -387 342 -36 17 -58 18 -88 5z"/>
<path d="M1474 1350 c-167 -4 -195 -7 -212 -23 -52 -48 -53 -128 -1 -172 l31
-26 415 3 415 3 29 33 c52 58 33 149 -38 178 -34 15 -232 16 -639 4z"/>
<path d="M3634 1176 l-34 -34 0 -342 c0 -296 2 -347 16 -376 44 -93 176 -77
204 24 5 21 7 163 3 356 -6 349 -9 363 -63 391 -49 25 -88 19 -126 -19z"/>
<path d="M1274 856 c-43 -19 -64 -53 -64 -104 0 -37 6 -50 36 -80 l35 -35 410
6 c457 7 458 8 486 75 19 46 5 101 -34 131 -25 20 -37 21 -432 21 -319 -1
-413 -4 -437 -14z"/>
<path d="M1645 351 c-382 -7 -385 -7 -424 -57 -34 -43 -28 -99 13 -140 l34
-34 229 1 c125 1 322 4 436 8 l209 6 29 33 c46 51 36 132 -19 168 -33 21 -73
23 -507 15z"/>
</g>
</svg>
