<svg xmlns="http://www.w3.org/2000/svg" width="500" height="153" viewBox="0 0 500 153" version="1.1"><path d="" stroke="none" fill="#686464" fill-rule="evenodd"/><path d="M 13.275 2.209 C 5.929 4.112, 2.388 14.409, 7.043 20.328 C 8.167 21.757, 22.350 35.135, 38.561 50.056 L 68.035 77.186 39.963 104.749 C 24.523 119.909, 11.240 133.569, 10.445 135.106 C 6.191 143.333, 11.888 152, 21.551 152 L 26.173 152 56.337 122.623 C 72.927 106.466, 88.831 90.777, 91.679 87.758 C 97.703 81.374, 99.080 76.989, 96.579 72.153 C 95.700 70.454, 78.606 54.032, 58.593 35.660 C 20.623 0.806, 20.121 0.435, 13.275 2.209 M 301.710 7.652 C 292.372 16.266, 241.408 66.772, 238.912 69.885 C 236.741 72.593, 236.436 78.359, 238.288 81.690 C 238.958 82.894, 255.705 98.770, 275.503 116.970 C 301.098 140.498, 312.525 150.368, 315.048 151.128 C 325.181 154.178, 333.897 141.814, 327.750 133.110 C 326.512 131.358, 312.450 117.974, 296.500 103.369 C 280.550 88.763, 267.370 76.465, 267.211 76.040 C 267.052 75.614, 279.747 62.778, 295.423 47.514 C 325.017 18.698, 326.896 16.357, 325.508 10.038 C 325.152 8.413, 323.300 5.715, 321.395 4.042 C 318.632 1.616, 317.019 1, 313.426 1 C 309.260 1, 308.378 1.501, 301.710 7.652 M 471.607 7.750 C 467.602 11.463, 451.427 27.336, 435.663 43.024 C 407.687 70.865, 407 71.643, 407.005 75.524 C 407.008 77.711, 407.796 80.715, 408.755 82.199 C 411.613 86.620, 480.204 149.126, 483.952 150.724 C 486.704 151.897, 488.163 151.968, 491.148 151.074 C 496.620 149.434, 499 145.880, 499 139.350 C 499 132.722, 500.943 134.860, 465 101.937 C 449.875 88.083, 437.371 76.416, 437.213 76.012 C 437.055 75.607, 449.748 62.793, 465.419 47.535 C 495.022 18.714, 496.900 16.374, 495.508 10.038 C 495.152 8.413, 493.300 5.715, 491.395 4.042 C 488.628 1.612, 487.021 1, 483.409 1 C 479.214 1, 478.364 1.486, 471.607 7.750 M 129 17.706 C 126.216 18.724, 123.065 22.274, 121.951 25.647 C 120.490 30.074, 122.131 35.091, 126.143 38.467 L 129.153 41 168.609 41 C 210.407 41, 212.238 40.816, 216.335 36.216 C 218.957 33.270, 219.574 27.012, 217.616 23.223 C 214.302 16.816, 215.634 16.992, 171.027 17.079 C 148.737 17.122, 129.825 17.405, 129 17.706 M 366.030 32.279 C 364.672 32.967, 362.534 35.052, 361.280 36.912 C 359.019 40.268, 359 40.575, 359 73.913 C 359 111.789, 359.134 112.557, 366.415 116.336 C 369.585 117.981, 370.710 118.104, 373.883 117.153 C 375.938 116.537, 378.718 114.865, 380.060 113.437 L 382.500 110.841 382.787 76.478 C 383.107 38.253, 382.898 36.737, 376.810 33.026 C 373.025 30.718, 369.586 30.480, 366.030 32.279 M 135.137 65.907 C 125.967 66.488, 125.714 66.572, 122.887 69.962 C 117.664 76.226, 119.557 84.651, 127.057 88.530 C 129.536 89.811, 135.615 89.925, 170.564 89.346 C 209.735 88.696, 211.304 88.596, 214.345 86.550 C 220.480 82.422, 221.014 73.182, 215.422 67.926 L 212.841 65.500 178.671 65.407 C 159.877 65.356, 140.287 65.581, 135.137 65.907 M 137.311 117.935 C 126.657 118.473, 125.976 118.640, 123.073 121.425 C 117.266 126.998, 118.273 135.681, 125.237 140.070 C 128.440 142.089, 129.256 142.114, 169.500 141.454 C 214.410 140.717, 215.459 140.576, 218.974 134.810 C 221.513 130.646, 221.541 126.341, 219.054 122.567 C 215.448 117.097, 215.168 117.058, 180.500 117.221 C 162.900 117.303, 143.465 117.625, 137.311 117.935" stroke="none" fill="#646464" fill-rule="evenodd"/></svg>